<svg width="118" height="22" viewBox="0 0 118 22" fill="none" xmlns="http://www.w3.org/2000/svg">
<g clip-path="url(#clip0_3643_6988)">
<path d="M10.7125 4.62445C11.7194 4.62557 12.5357 5.44169 12.5367 6.44867C12.5365 7.45582 11.7196 8.27176 10.7125 8.27191C9.70522 8.27191 8.8885 7.45592 8.88829 6.44867C8.88829 5.44124 9.70508 4.62445 10.7125 4.62445Z" fill="#183B43"/>
<path fill-rule="evenodd" clip-rule="evenodd" d="M2.50157 5.26507C5.66821 0.683571 11.9491 -0.463762 16.5309 2.70257C21.1084 5.87514 22.2532 12.155 19.0895 16.7387C15.9211 21.3158 9.64366 22.4602 5.06407 19.2953C0.482148 16.1286 -0.665169 9.84708 2.50157 5.26507ZM6.27891 18.0805C9.02774 19.8302 12.5395 19.8362 15.2945 18.0961L10.7789 13.3823L6.27891 18.0805ZM11.3453 11.5346L16.6275 17.0453C17.0267 16.6585 17.3873 16.2337 17.7037 15.7768C18.5713 14.5219 19.0804 13.0534 19.1754 11.5307L11.3453 11.5346ZM2.40977 11.5297C2.43136 11.8577 2.47196 12.1841 2.53086 12.5073C2.83976 14.2307 3.68444 15.8134 4.94493 17.0287L10.2106 11.5307L2.40977 11.5297ZM10.8102 2.60003C10.2986 2.6002 9.78799 2.64661 9.28477 2.73871C5.72032 3.39154 2.9747 6.25377 2.47032 9.84222H19.109C18.5339 5.69733 14.9947 2.6086 10.8102 2.60003Z" fill="#183B43"/>
<path fill-rule="evenodd" clip-rule="evenodd" d="M60.8395 6.7475C64.3949 6.74762 66.9184 9.3988 66.9186 13.0004C66.9263 13.3015 66.9093 13.6036 66.8678 13.9018H56.8375C57.1124 16.203 58.7641 17.6537 60.9898 17.6537C62.716 17.6536 64.0409 16.7777 64.7662 15.4311L66.5182 16.4086C65.343 18.4104 63.3178 19.6087 60.9898 19.6088C57.4128 19.6088 54.6861 16.7821 54.6861 13.1801L54.694 12.8403C54.8544 9.39991 57.4717 6.7475 60.8395 6.7475ZM60.816 8.69769C58.8151 8.69777 57.2893 10.0231 56.8893 12.0756H64.7438C64.494 10.1199 62.9921 8.69769 60.816 8.69769Z" fill="#183B43"/>
<path fill-rule="evenodd" clip-rule="evenodd" d="M94.5592 6.7475C98.1148 6.74757 100.639 9.39877 100.639 13.0004C100.646 13.3015 100.629 13.6036 100.588 13.9018H90.5572C90.832 16.203 92.4838 17.6537 94.7096 17.6537C96.4357 17.6537 97.7607 16.7778 98.4869 15.4311L100.238 16.4086C99.0624 18.4105 97.0377 19.6087 94.7096 19.6088C91.1325 19.6088 88.4059 16.7821 88.4059 13.1801L88.4137 12.8403C88.5742 9.39991 91.1915 6.7475 94.5592 6.7475ZM94.5338 8.7016C92.5332 8.70179 91.0072 10.0274 90.607 12.0795H98.4615C98.2116 10.1241 96.7106 8.7016 94.5338 8.7016Z" fill="#183B43"/>
<path d="M44.9303 13.852C44.9303 16.2032 46.2556 17.6049 48.3082 17.6049C50.3606 17.6048 51.6861 16.2031 51.6861 13.852V6.9975H53.8121V13.9516C53.8121 17.4289 51.5608 19.6057 48.3092 19.6059C45.0575 19.6059 42.8053 17.4291 42.8053 13.9516L42.8033 6.9975H44.9303V13.852Z" fill="#183B43"/>
<path fill-rule="evenodd" clip-rule="evenodd" d="M114.372 19.3549H112.321V17.478C111.343 18.8043 109.694 19.6049 107.793 19.6049C104.166 19.6047 101.489 16.7772 101.489 13.1752C101.489 9.57363 104.166 6.74672 107.793 6.74652C109.643 6.74652 111.245 7.52191 112.246 8.7973V2.39691H114.372V19.3549ZM107.943 8.7475C105.442 8.7475 103.616 10.5985 103.616 13.1752C103.616 15.7522 105.442 17.6039 107.943 17.6039C110.444 17.6039 112.27 15.7522 112.27 13.1752C112.27 10.5976 110.444 8.7475 107.943 8.7475Z" fill="#183B43"/>
<path fill-rule="evenodd" clip-rule="evenodd" d="M116.652 17.5395C116.868 17.5227 117.057 17.6844 117.074 17.9008C117.075 17.915 117.076 17.9295 117.075 17.9438C117.079 18.1147 116.971 18.2684 116.808 18.3217L117.105 18.85H116.915L116.636 18.3481H116.35V18.85L116.186 18.8461V17.5395H116.652ZM116.351 18.186H116.689C116.801 18.1754 116.893 18.0877 116.906 17.9721C116.907 17.9616 116.907 17.9505 116.907 17.9399C116.907 17.7864 116.799 17.6958 116.64 17.6957H116.351V18.186Z" fill="#183B43"/>
<path fill-rule="evenodd" clip-rule="evenodd" d="M116.625 16.8891C117.356 16.8891 117.948 17.4817 117.948 18.2123C117.947 18.9424 117.355 19.5336 116.625 19.5346C115.895 19.5344 115.302 18.9427 115.302 18.2123C115.302 17.4819 115.895 16.8893 116.625 16.8891ZM116.625 17.0571C115.987 17.0572 115.47 17.5743 115.47 18.2123C115.47 18.8505 115.987 19.3674 116.625 19.3676C117.263 19.3676 117.781 18.8506 117.781 18.2123C117.781 17.5741 117.263 17.0571 116.625 17.0571Z" fill="#183B43"/>
<path d="M37.151 4.49652H31.5973V19.3559H29.4215V4.49652H23.8688V2.39496H37.151V4.49652Z" fill="#183B43"/>
<path d="M82.4283 6.7475C85.4301 6.74771 87.5299 8.84962 87.5299 12.2016V19.3559H85.4039V12.3754C85.4038 10.0998 84.1528 8.74847 82.152 8.74847C80.1761 8.74866 78.8512 10.1711 78.8512 12.3754V19.3559H76.7242V12.3754C76.7242 10.1 75.4729 8.74866 73.4723 8.74847C71.4962 8.74847 70.1442 10.1709 70.1441 12.3754V19.3559H68.0182V6.99945H70.0699V8.29925C70.8957 7.32146 72.1962 6.74754 73.7721 6.7475C75.6227 6.7475 77.1244 7.54756 77.9244 9.02386C78.8508 7.62315 80.5029 6.7475 82.4283 6.7475Z" fill="#183B43"/>
<path d="M37.1998 8.77679C37.95 7.6515 39.1513 6.99945 40.9772 6.99945H41.777V9.09906H40.777C38.2756 9.09906 37.2751 10.5494 37.275 12.5502V19.3549H35.1481V6.99945H37.1998V8.77679Z" fill="#183B43"/>
</g>
<defs>
<clipPath id="clip0_3643_6988">
<rect width="118" height="22" fill="white"/>
</clipPath>
</defs>
</svg>
